<svg xmlns="http://www.w3.org/2000/svg" xmlns:xlink="http://www.w3.org/1999/xlink" width="512" zoomAndPan="magnify" viewBox="0 0 384 383.999986" height="512" preserveAspectRatio="xMidYMid meet" version="1.0"><path fill="#ffffff" d="M 97.160156 59.222656 C 104.929688 59.222656 111.523438 54.195312 113.863281 47.210938 L 149.40625 47.210938 L 149.40625 84.257812 L 160.609375 84.257812 L 160.609375 41.613281 C 160.609375 38.519531 158.101562 36.011719 155.007812 36.011719 L 113.863281 36.011719 C 111.523438 29.03125 104.929688 24 97.160156 24 C 87.433594 24 79.546875 31.886719 79.546875 41.613281 C 79.546875 51.339844 87.433594 59.222656 97.160156 59.222656 Z M 148.601562 214.964844 C 148.601562 238.84375 168.121094 258.359375 192 258.359375 C 215.878906 258.359375 235.398438 238.84375 235.398438 214.964844 L 235.398438 181.101562 C 235.398438 178.007812 232.890625 175.5 229.796875 175.5 L 223.101562 175.5 L 223.101562 156.738281 C 223.101562 139.632812 209.105469 125.640625 192 125.640625 C 174.882812 125.640625 160.898438 139.625 160.898438 156.738281 L 160.898438 175.5 L 154.203125 175.5 C 151.109375 175.5 148.601562 178.007812 148.601562 181.101562 Z M 211.902344 175.5 L 172.097656 175.5 L 172.097656 156.738281 C 172.097656 145.804688 181.066406 136.839844 192 136.839844 C 202.945312 136.839844 211.902344 145.792969 211.902344 156.738281 Z M 184 208.519531 C 184 204.101562 187.582031 200.519531 192 200.519531 C 196.417969 200.519531 200 204.101562 200 208.519531 C 200 210.757812 199.082031 212.78125 197.601562 214.234375 C 197.601562 218.808594 197.601562 223.382812 197.601562 227.957031 C 197.601562 231.050781 195.09375 233.558594 192 233.558594 C 188.90625 233.558594 186.398438 231.050781 186.398438 227.957031 C 186.398438 223.382812 186.398438 218.808594 186.398438 214.234375 C 184.917969 212.78125 184 210.757812 184 208.519531 Z M 129.226562 95.457031 L 254.773438 95.457031 L 288.542969 129.226562 L 288.542969 254.773438 L 254.773438 288.542969 L 129.226562 288.542969 L 95.457031 254.773438 L 95.457031 129.226562 Z M 137.402344 214.964844 L 137.402344 181.101562 C 137.402344 173.386719 142.609375 166.882812 149.699219 164.914062 L 149.699219 156.738281 C 149.699219 133.445312 168.703125 114.4375 192 114.4375 C 215.289062 114.4375 234.300781 133.453125 234.300781 156.738281 L 234.300781 164.914062 C 241.390625 166.882812 246.597656 173.386719 246.597656 181.101562 L 246.597656 214.964844 C 246.597656 245.023438 222.058594 269.5625 192 269.5625 C 161.941406 269.558594 137.402344 245.023438 137.402344 214.964844 Z M 47.210938 113.863281 L 47.210938 149.40625 L 84.257812 149.40625 L 84.257812 160.609375 L 41.613281 160.609375 C 38.519531 160.609375 36.011719 158.101562 36.011719 155.007812 L 36.011719 113.863281 C 29.03125 111.523438 24 104.929688 24 97.160156 C 24 87.433594 31.886719 79.546875 41.613281 79.546875 C 51.339844 79.546875 59.226562 87.433594 59.226562 97.160156 C 59.222656 104.929688 54.195312 111.523438 47.210938 113.863281 Z M 197.601562 34.3125 L 197.601562 84.257812 L 186.398438 84.257812 L 186.398438 34.3125 C 179.417969 31.972656 174.390625 25.378906 174.390625 17.613281 C 174.390625 7.886719 182.273438 0 192 0 C 201.726562 0 209.613281 7.886719 209.613281 17.613281 C 209.613281 25.378906 204.582031 31.972656 197.601562 34.3125 Z M 270.136719 47.210938 L 234.59375 47.210938 L 234.59375 84.257812 L 223.390625 84.257812 L 223.390625 41.613281 C 223.390625 38.519531 225.898438 36.011719 228.992188 36.011719 L 270.136719 36.011719 C 272.476562 29.03125 279.070312 24 286.839844 24 C 296.566406 24 304.453125 31.886719 304.453125 41.613281 C 304.453125 51.339844 296.566406 59.222656 286.839844 59.222656 C 279.070312 59.222656 272.476562 54.195312 270.136719 47.210938 Z M 347.988281 113.863281 C 354.96875 111.523438 360 104.929688 360 97.160156 C 360 87.433594 352.113281 79.546875 342.386719 79.546875 C 332.660156 79.546875 324.777344 87.433594 324.777344 97.160156 C 324.777344 104.929688 329.804688 111.523438 336.789062 113.863281 L 336.789062 149.40625 L 299.742188 149.40625 L 299.742188 160.605469 L 342.386719 160.605469 C 345.480469 160.605469 347.988281 158.101562 347.988281 155.007812 Z M 349.679688 197.578125 L 299.742188 197.578125 L 299.742188 186.421875 L 349.679688 186.421875 C 352.011719 179.429688 358.609375 174.390625 366.386719 174.390625 C 376.113281 174.390625 384 182.273438 384 192 C 384 201.726562 376.113281 209.613281 366.386719 209.613281 C 358.609375 209.613281 352.011719 204.570312 349.679688 197.578125 Z M 336.789062 270.136719 L 336.789062 234.59375 L 299.742188 234.59375 L 299.742188 223.390625 L 342.386719 223.390625 C 345.480469 223.390625 347.988281 225.898438 347.988281 228.992188 L 347.988281 270.136719 C 354.96875 272.476562 360 279.070312 360 286.839844 C 360 296.566406 352.113281 304.453125 342.386719 304.453125 C 332.660156 304.453125 324.777344 296.566406 324.777344 286.839844 C 324.777344 279.070312 329.804688 272.476562 336.789062 270.136719 Z M 270.136719 347.988281 C 272.476562 354.96875 279.070312 360 286.839844 360 C 296.566406 360 304.453125 352.113281 304.453125 342.386719 C 304.453125 332.660156 296.566406 324.777344 286.839844 324.777344 C 279.070312 324.777344 272.476562 329.804688 270.136719 336.789062 L 234.59375 336.789062 L 234.59375 299.742188 L 223.390625 299.742188 L 223.390625 342.386719 C 223.390625 345.480469 225.898438 347.988281 228.992188 347.988281 Z M 186.398438 349.6875 L 186.398438 299.742188 L 197.601562 299.742188 L 197.601562 349.6875 C 204.582031 352.023438 209.613281 358.621094 209.613281 366.386719 C 209.613281 376.113281 201.726562 384 192 384 C 182.273438 384 174.386719 376.113281 174.386719 366.386719 C 174.390625 358.621094 179.417969 352.027344 186.398438 349.6875 Z M 113.863281 336.789062 L 149.40625 336.789062 L 149.40625 299.742188 L 160.609375 299.742188 L 160.609375 342.386719 C 160.609375 345.480469 158.101562 347.988281 155.007812 347.988281 L 113.863281 347.988281 C 111.523438 354.96875 104.929688 360 97.160156 360 C 87.433594 360 79.546875 352.113281 79.546875 342.386719 C 79.546875 332.660156 87.433594 324.777344 97.160156 324.777344 C 104.929688 324.777344 111.523438 329.804688 113.863281 336.789062 Z M 36.011719 270.136719 C 29.03125 272.476562 24 279.070312 24 286.839844 C 24 296.566406 31.886719 304.453125 41.613281 304.453125 C 51.339844 304.453125 59.226562 296.566406 59.226562 286.839844 C 59.226562 279.070312 54.195312 272.476562 47.210938 270.136719 L 47.210938 234.59375 L 84.257812 234.59375 L 84.257812 223.390625 L 41.613281 223.390625 C 38.519531 223.390625 36.011719 225.898438 36.011719 228.992188 Z M 34.320312 186.421875 L 84.257812 186.421875 L 84.257812 197.578125 L 34.320312 197.578125 C 31.988281 204.570312 25.390625 209.609375 17.613281 209.609375 C 7.886719 209.613281 0 201.726562 0 192 C 0 182.273438 7.886719 174.386719 17.613281 174.386719 C 25.390625 174.386719 31.988281 179.429688 34.320312 186.421875 Z M 34.320312 186.421875 " fill-opacity="1" fill-rule="evenodd"/></svg>