<svg xmlns="http://www.w3.org/2000/svg" xmlns:xlink="http://www.w3.org/1999/xlink" width="512" zoomAndPan="magnify" viewBox="0 0 384 383.999986" height="512" preserveAspectRatio="xMidYMid meet" version="1.0"><rect x="-38.4" width="460.8" fill="#ffffff" y="-38.399999" height="460.799983" fill-opacity="1"/><rect x="-38.4" width="460.8" fill="#ffffff" y="-38.399999" height="460.799983" fill-opacity="1"/><path fill="#00678c" d="M -0.707031 251.113281 L 11.90625 251.113281 L 11.90625 201.195312 L 31.601562 244.714844 C 33.835938 249.949219 37.039062 251.886719 43.246094 251.886719 C 49.453125 251.886719 52.464844 249.945312 54.769531 244.714844 L 74.371094 201.195312 L 74.371094 251.113281 L 87.082031 251.113281 L 87.082031 201.195312 C 87.082031 196.351562 85.140625 194.019531 81.066406 192.761719 C 71.460938 189.855469 65.054688 192.375 62.144531 198.867188 L 42.839844 241.902344 L 24.210938 198.867188 C 21.394531 192.375 14.894531 189.855469 5.191406 192.761719 C 1.214844 194.019531 -0.726562 196.351562 -0.726562 201.195312 L -0.730469 251.113281 Z M 97.582031 210.5 L 110.292969 210.5 L 110.292969 237.933594 C 110.195312 239.480469 110.777344 242.972656 117.683594 243.066406 C 121.273438 243.164062 145.046875 243.066406 145.238281 243.066406 L 145.238281 210.304688 L 157.949219 210.304688 L 157.949219 255.183594 C 157.949219 266.230469 144.246094 268.652344 137.863281 268.75 L 97.894531 268.75 L 97.894531 260.324219 L 137.964844 260.324219 C 146.117188 259.449219 145.144531 255.378906 145.144531 254.023438 L 145.144531 250.726562 L 118.269531 250.726562 C 105.75 250.628906 97.695312 245.101562 97.601562 238.804688 L 97.601562 210.496094 Z M 370.210938 178.707031 C 362.453125 178.511719 356.433594 179.289062 351.386719 181.421875 C 349.933594 182.011719 347.601562 182.011719 347.410156 183.847656 C 348.1875 184.621094 348.28125 185.882812 348.960938 186.949219 C 350.125 188.890625 352.164062 191.503906 354.007812 192.859375 C 356.046875 194.414062 358.085938 195.960938 360.214844 197.320312 C 364 199.644531 368.269531 201 371.953125 203.328125 C 374.089844 204.6875 376.222656 206.429688 378.359375 207.886719 C 379.445312 208.660156 380.105469 209.921875 381.464844 210.40625 L 381.464844 210.113281 C 380.785156 209.242188 380.589844 207.984375 379.914062 207.011719 C 378.941406 206.042969 377.972656 205.167969 377 204.203125 C 374.1875 200.421875 370.695312 197.125 366.910156 194.414062 C 363.804688 192.277344 357.015625 189.371094 355.753906 185.789062 L 355.5625 185.59375 C 357.695312 185.398438 360.214844 184.621094 362.257812 184.039062 C 365.558594 183.171875 368.5625 183.363281 371.953125 182.492188 C 373.507812 182.097656 375.058594 181.617188 376.613281 181.132812 L 376.613281 180.265625 C 374.867188 178.519531 373.605469 176.191406 371.765625 174.546875 C 366.816406 170.28125 361.382812 166.113281 355.753906 162.625 C 352.746094 160.6875 348.863281 159.425781 345.664062 157.78125 C 344.496094 157.195312 342.558594 156.90625 341.878906 155.9375 C 340.128906 153.808594 339.160156 150.996094 337.898438 148.472656 C 335.089844 143.140625 332.371094 137.230469 329.945312 131.609375 C 328.199219 127.828125 327.128906 124.046875 325 120.558594 C 315.003906 104.082031 304.136719 94.101562 287.449219 84.308594 C 283.859375 82.273438 279.589844 81.398438 275.050781 80.332031 L 267.777344 79.941406 C 266.222656 79.265625 264.671875 77.421875 263.3125 76.550781 C 257.78125 73.058594 243.519531 65.5 239.441406 75.484375 C 236.820312 81.785156 243.324219 87.988281 245.53125 91.1875 C 247.183594 93.414062 249.3125 95.9375 250.480469 98.457031 C 251.132812 100.101562 251.351562 101.847656 252.03125 103.59375 C 253.582031 107.859375 255.039062 112.609375 257.078125 116.585938 C 258.164062 118.621094 259.304688 120.753906 260.664062 122.59375 C 261.441406 123.660156 262.800781 124.144531 263.089844 125.890625 C 261.730469 127.832031 261.636719 130.734375 260.859375 133.160156 C 257.367188 144.113281 258.726562 157.683594 263.671875 165.726562 C 265.226562 168.148438 268.890625 173.480469 273.863281 171.445312 C 278.230469 169.699219 277.253906 164.175781 278.515625 159.328125 C 278.808594 158.167969 278.613281 157.390625 279.195312 156.613281 L 279.195312 156.808594 L 283.175781 164.851562 C 286.183594 169.601562 291.421875 174.546875 295.785156 177.84375 C 298.113281 179.589844 299.957031 182.59375 302.867188 183.660156 L 302.867188 183.367188 L 302.675781 183.367188 C 302.09375 182.496094 301.21875 182.105469 300.441406 181.429688 C 298.695312 179.683594 296.757812 177.550781 295.398438 175.613281 C 291.324219 170.1875 287.738281 164.175781 284.535156 157.972656 C 282.980469 154.96875 281.621094 151.671875 280.363281 148.667969 C 279.777344 147.503906 279.777344 145.757812 278.808594 145.179688 C 277.351562 147.308594 275.21875 149.15625 274.148438 151.769531 C 272.304688 155.9375 272.113281 161.074219 271.433594 166.40625 C 271.042969 166.503906 271.214844 166.40625 271.042969 166.601562 C 267.941406 165.828125 266.871094 162.625 265.707031 159.914062 C 262.796875 153.03125 262.3125 141.984375 264.832031 134.035156 C 265.511719 132 268.425781 125.601562 267.261719 123.664062 C 266.675781 121.820312 264.742188 120.757812 263.671875 119.300781 C 262.410156 117.460938 261.054688 115.136719 260.179688 113.101562 C 257.851562 107.667969 256.691406 101.660156 254.164062 96.234375 C 252.996094 93.714844 250.960938 91.09375 249.3125 88.769531 C 247.46875 86.152344 245.433594 84.3125 243.976562 81.210938 C 243.492188 80.148438 242.8125 78.398438 243.589844 77.234375 C 243.78125 76.460938 244.171875 76.171875 244.945312 75.976562 C 246.207031 74.910156 249.796875 76.265625 251.058594 76.84375 C 254.648438 78.300781 257.65625 79.65625 260.664062 81.6875 C 262.023438 82.65625 263.480469 84.5 265.226562 84.988281 L 267.265625 84.988281 C 270.371094 85.664062 273.859375 85.183594 276.769531 86.050781 C 281.910156 87.703125 286.566406 90.121094 290.742188 92.742188 C 303.449219 100.785156 313.933594 112.222656 321.011719 125.894531 C 322.175781 128.121094 322.660156 130.15625 323.730469 132.484375 C 325.769531 137.234375 328.292969 142.078125 330.328125 146.734375 C 332.367188 151.289062 334.304688 155.945312 337.214844 159.726562 C 338.671875 161.761719 344.492188 162.824219 347.109375 163.890625 C 349.050781 164.761719 352.058594 165.542969 353.808594 166.609375 C 357.105469 168.644531 360.402344 170.96875 363.507812 173.199219 C 365.058594 174.359375 369.910156 176.785156 370.199219 178.71875 Z M 271.265625 94.480469 C 269.921875 94.46875 268.59375 94.628906 267.289062 94.964844 L 267.289062 95.160156 L 267.480469 95.160156 C 268.257812 96.710938 269.617188 97.777344 270.585938 99.136719 L 272.820312 103.789062 L 273.011719 103.59375 C 274.371094 102.625 275.050781 101.074219 275.050781 98.75 C 274.46875 98.070312 274.375 97.390625 273.890625 96.714844 C 273.304688 95.746094 272.042969 95.257812 271.265625 94.484375 Z M 271.265625 94.480469 " fill-opacity="1" fill-rule="evenodd"/><path fill="#ce8b2c" d="M 167.632812 251.113281 L 204.113281 251.113281 C 208.382812 251.113281 212.460938 250.242188 215.757812 248.691406 C 221.289062 246.167969 223.90625 242.78125 223.90625 238.320312 L 223.90625 229.015625 C 223.90625 225.433594 220.898438 222.035156 214.886719 219.710938 C 211.78125 218.550781 207.902344 217.871094 204.117188 217.871094 L 188.785156 217.871094 C 183.644531 217.871094 181.21875 216.316406 180.539062 212.929688 C 180.441406 212.542969 180.441406 212.152344 180.441406 211.765625 L 180.441406 206.046875 C 180.441406 205.753906 180.441406 205.367188 180.539062 204.980469 C 181.214844 202.363281 182.574219 201.683594 187.0625 201.203125 L 224.414062 201.203125 L 224.414062 192.765625 L 188.902344 192.765625 C 183.761719 192.765625 181.042969 193.058594 178.617188 193.835938 C 171.144531 196.160156 167.847656 199.84375 167.847656 206.335938 L 167.847656 213.707031 C 167.847656 219.417969 174.25 224.269531 185.117188 225.433594 C 186.28125 225.53125 187.542969 225.53125 188.804688 225.53125 L 201.902344 225.53125 C 202.386719 225.53125 202.871094 225.53125 203.257812 225.628906 C 207.238281 226.015625 208.984375 226.691406 210.148438 228.144531 C 210.921875 228.917969 211.117188 229.597656 211.117188 230.472656 L 211.117188 237.835938 C 211.117188 238.707031 210.535156 239.875 209.371094 240.839844 C 208.210938 241.808594 206.359375 242.488281 203.9375 242.585938 C 203.449219 242.585938 203.164062 242.683594 202.675781 242.683594 L 167.632812 242.683594 Z M 302.882812 236.480469 C 302.882812 245.101562 309.40625 249.949219 322.390625 250.921875 C 323.648438 251.019531 324.8125 251.113281 326.074219 251.113281 L 359.0625 251.113281 L 359.0625 242.683594 L 325.785156 242.683594 C 318.40625 242.683594 315.59375 240.839844 315.59375 236.382812 L 315.59375 192.765625 L 302.851562 192.765625 L 302.851562 236.480469 Z M 231.957031 236.863281 L 231.957031 206.820312 C 231.957031 199.160156 237.390625 194.507812 247.96875 193.054688 C 249.132812 192.957031 250.296875 192.859375 251.363281 192.859375 L 275.421875 192.859375 C 276.683594 192.859375 277.753906 192.957031 279.015625 193.054688 C 289.589844 194.507812 294.921875 199.160156 294.921875 206.820312 L 294.921875 236.863281 C 294.921875 243.066406 292.695312 246.363281 287.453125 248.59375 L 299.867188 259.835938 L 285.21875 259.835938 L 275.128906 250.726562 L 264.941406 251.308594 L 251.359375 251.308594 C 248.859375 251.296875 246.402344 250.972656 243.984375 250.339844 C 235.9375 248.109375 231.957031 243.84375 231.957031 236.863281 Z M 245.636719 236.191406 C 245.636719 236.578125 245.855469 236.960938 245.929688 237.449219 C 246.609375 240.9375 249.90625 242.875 254.949219 242.875 L 266.402344 242.875 L 255.925781 233.375 L 270.574219 233.375 L 279.789062 241.714844 C 281.539062 240.742188 282.605469 239.386719 282.992188 237.640625 C 283.089844 237.253906 283.089844 236.773438 283.089844 236.382812 L 283.089844 207.59375 C 283.089844 207.207031 283.089844 206.820312 282.992188 206.429688 C 282.3125 203.136719 279.015625 201.296875 274.066406 201.296875 L 254.953125 201.296875 C 249.324219 201.296875 245.636719 203.71875 245.636719 207.59375 Z M 245.636719 236.191406 " fill-opacity="1" fill-rule="evenodd"/></svg>