<svg xmlns="http://www.w3.org/2000/svg" xmlns:xlink="http://www.w3.org/1999/xlink" width="512" zoomAndPan="magnify" viewBox="0 0 384 383.999986" height="512" preserveAspectRatio="xMidYMid meet" version="1.0"><defs><linearGradient x1="0" gradientTransform="matrix(0.75, 0, 0, 0.75, 0.0000072, 0)" y1="256" x2="511.999979" gradientUnits="userSpaceOnUse" y2="256" id="7ca08d5ad2"><stop stop-opacity="1" stop-color="rgb(0%, 28.999329%, 67.799377%)" offset="0"/><stop stop-opacity="1" stop-color="rgb(0.309753%, 29.051208%, 67.886353%)" offset="0.00390625"/><stop stop-opacity="1" stop-color="rgb(0.621033%, 29.104614%, 67.974854%)" offset="0.0078125"/><stop stop-opacity="1" stop-color="rgb(0.932312%, 29.156494%, 68.061829%)" offset="0.0117188"/><stop stop-opacity="1" stop-color="rgb(1.243591%, 29.208374%, 68.148804%)" offset="0.015625"/><stop stop-opacity="1" stop-color="rgb(1.553345%, 29.260254%, 68.235779%)" offset="0.0195312"/><stop stop-opacity="1" stop-color="rgb(1.864624%, 29.31366%, 68.32428%)" offset="0.0234375"/><stop stop-opacity="1" stop-color="rgb(2.175903%, 29.36554%, 68.411255%)" offset="0.0273438"/><stop stop-opacity="1" stop-color="rgb(2.487183%, 29.417419%, 68.499756%)" offset="0.03125"/><stop stop-opacity="1" stop-color="rgb(2.796936%, 29.469299%, 68.586731%)" offset="0.0351562"/><stop stop-opacity="1" stop-color="rgb(3.108215%, 29.522705%, 68.673706%)" offset="0.0390625"/><stop stop-opacity="1" stop-color="rgb(3.419495%, 29.574585%, 68.760681%)" offset="0.0429688"/><stop stop-opacity="1" stop-color="rgb(3.730774%, 29.627991%, 68.849182%)" offset="0.046875"/><stop stop-opacity="1" stop-color="rgb(4.040527%, 29.679871%, 68.936157%)" offset="0.0507812"/><stop stop-opacity="1" stop-color="rgb(4.351807%, 29.73175%, 69.024658%)" offset="0.0546875"/><stop stop-opacity="1" stop-color="rgb(4.663086%, 29.78363%, 69.111633%)" offset="0.0585938"/><stop stop-opacity="1" stop-color="rgb(4.974365%, 29.837036%, 69.198608%)" offset="0.0625"/><stop stop-opacity="1" stop-color="rgb(5.284119%, 29.888916%, 69.285583%)" offset="0.0664062"/><stop stop-opacity="1" stop-color="rgb(5.595398%, 29.940796%, 69.374084%)" offset="0.0703125"/><stop stop-opacity="1" stop-color="rgb(5.906677%, 29.992676%, 69.46106%)" offset="0.0742188"/><stop stop-opacity="1" stop-color="rgb(6.217957%, 30.046082%, 69.549561%)" offset="0.078125"/><stop stop-opacity="1" stop-color="rgb(6.529236%, 30.097961%, 69.636536%)" offset="0.0820312"/><stop stop-opacity="1" stop-color="rgb(6.840515%, 30.151367%, 69.723511%)" offset="0.0859375"/><stop stop-opacity="1" stop-color="rgb(7.150269%, 30.203247%, 69.810486%)" offset="0.0898438"/><stop stop-opacity="1" stop-color="rgb(7.461548%, 30.255127%, 69.898987%)" offset="0.09375"/><stop stop-opacity="1" stop-color="rgb(7.772827%, 30.307007%, 69.985962%)" offset="0.0976562"/><stop stop-opacity="1" stop-color="rgb(8.084106%, 30.360413%, 70.074463%)" offset="0.101562"/><stop stop-opacity="1" stop-color="rgb(8.39386%, 30.412292%, 70.161438%)" offset="0.105469"/><stop stop-opacity="1" stop-color="rgb(8.705139%, 30.464172%, 70.249939%)" offset="0.109375"/><stop stop-opacity="1" stop-color="rgb(9.016418%, 30.516052%, 70.336914%)" offset="0.113281"/><stop stop-opacity="1" stop-color="rgb(9.327698%, 30.569458%, 70.423889%)" offset="0.117188"/><stop stop-opacity="1" stop-color="rgb(9.637451%, 30.621338%, 70.510864%)" offset="0.121094"/><stop stop-opacity="1" stop-color="rgb(9.94873%, 30.674744%, 70.599365%)" offset="0.125"/><stop stop-opacity="1" stop-color="rgb(10.26001%, 30.726624%, 70.68634%)" offset="0.128906"/><stop stop-opacity="1" stop-color="rgb(10.571289%, 30.778503%, 70.774841%)" offset="0.132812"/><stop stop-opacity="1" stop-color="rgb(10.881042%, 30.830383%, 70.861816%)" offset="0.136719"/><stop stop-opacity="1" stop-color="rgb(11.192322%, 30.883789%, 70.948792%)" offset="0.140625"/><stop stop-opacity="1" stop-color="rgb(11.503601%, 30.935669%, 71.035767%)" offset="0.144531"/><stop stop-opacity="1" stop-color="rgb(11.81488%, 30.987549%, 71.124268%)" offset="0.148438"/><stop stop-opacity="1" stop-color="rgb(12.12616%, 31.039429%, 71.211243%)" offset="0.152344"/><stop stop-opacity="1" stop-color="rgb(12.437439%, 31.092834%, 71.299744%)" offset="0.15625"/><stop stop-opacity="1" stop-color="rgb(12.747192%, 31.144714%, 71.386719%)" offset="0.160156"/><stop stop-opacity="1" stop-color="rgb(13.058472%, 31.19812%, 71.473694%)" offset="0.164062"/><stop stop-opacity="1" stop-color="rgb(13.369751%, 31.25%, 71.560669%)" offset="0.167969"/><stop stop-opacity="1" stop-color="rgb(13.68103%, 31.30188%, 71.64917%)" offset="0.171875"/><stop stop-opacity="1" stop-color="rgb(13.990784%, 31.35376%, 71.736145%)" offset="0.175781"/><stop stop-opacity="1" stop-color="rgb(14.302063%, 31.407166%, 71.824646%)" offset="0.179688"/><stop stop-opacity="1" stop-color="rgb(14.613342%, 31.459045%, 71.911621%)" offset="0.183594"/><stop stop-opacity="1" stop-color="rgb(14.924622%, 31.512451%, 71.998596%)" offset="0.1875"/><stop stop-opacity="1" stop-color="rgb(15.234375%, 31.564331%, 72.085571%)" offset="0.191406"/><stop stop-opacity="1" stop-color="rgb(15.545654%, 31.616211%, 72.174072%)" offset="0.195312"/><stop stop-opacity="1" stop-color="rgb(15.856934%, 31.668091%, 72.261047%)" offset="0.199219"/><stop stop-opacity="1" stop-color="rgb(16.168213%, 31.721497%, 72.349548%)" offset="0.203125"/><stop stop-opacity="1" stop-color="rgb(16.477966%, 31.773376%, 72.436523%)" offset="0.207031"/><stop stop-opacity="1" stop-color="rgb(16.789246%, 31.825256%, 72.523499%)" offset="0.210938"/><stop stop-opacity="1" stop-color="rgb(17.100525%, 31.877136%, 72.610474%)" offset="0.214844"/><stop stop-opacity="1" stop-color="rgb(17.411804%, 31.930542%, 72.698975%)" offset="0.21875"/><stop stop-opacity="1" stop-color="rgb(17.723083%, 31.982422%, 72.78595%)" offset="0.222656"/><stop stop-opacity="1" stop-color="rgb(18.034363%, 32.035828%, 72.874451%)" offset="0.226562"/><stop stop-opacity="1" stop-color="rgb(18.344116%, 32.087708%, 72.961426%)" offset="0.230469"/><stop stop-opacity="1" stop-color="rgb(18.655396%, 32.139587%, 73.049927%)" offset="0.234375"/><stop stop-opacity="1" stop-color="rgb(18.966675%, 32.191467%, 73.136902%)" offset="0.238281"/><stop stop-opacity="1" stop-color="rgb(19.277954%, 32.244873%, 73.223877%)" offset="0.242188"/><stop stop-opacity="1" stop-color="rgb(19.587708%, 32.296753%, 73.310852%)" offset="0.246094"/><stop stop-opacity="1" stop-color="rgb(19.898987%, 32.348633%, 73.399353%)" offset="0.25"/><stop stop-opacity="1" stop-color="rgb(20.210266%, 32.400513%, 73.486328%)" offset="0.253906"/><stop stop-opacity="1" stop-color="rgb(20.521545%, 32.453918%, 73.574829%)" offset="0.257812"/><stop stop-opacity="1" stop-color="rgb(20.831299%, 32.505798%, 73.661804%)" offset="0.261719"/><stop stop-opacity="1" stop-color="rgb(21.142578%, 32.559204%, 73.748779%)" offset="0.265625"/><stop stop-opacity="1" stop-color="rgb(21.453857%, 32.611084%, 73.835754%)" offset="0.269531"/><stop stop-opacity="1" stop-color="rgb(21.765137%, 32.662964%, 73.924255%)" offset="0.273438"/><stop stop-opacity="1" stop-color="rgb(22.07489%, 32.714844%, 74.01123%)" offset="0.277344"/><stop stop-opacity="1" stop-color="rgb(22.386169%, 32.76825%, 74.099731%)" offset="0.28125"/><stop stop-opacity="1" stop-color="rgb(22.697449%, 32.820129%, 74.186707%)" offset="0.285156"/><stop stop-opacity="1" stop-color="rgb(23.008728%, 32.872009%, 74.273682%)" offset="0.289062"/><stop stop-opacity="1" stop-color="rgb(23.318481%, 32.923889%, 74.360657%)" offset="0.292969"/><stop stop-opacity="1" stop-color="rgb(23.629761%, 32.977295%, 74.449158%)" offset="0.296875"/><stop stop-opacity="1" stop-color="rgb(23.94104%, 33.029175%, 74.536133%)" offset="0.300781"/><stop stop-opacity="1" stop-color="rgb(24.252319%, 33.082581%, 74.624634%)" offset="0.304688"/><stop stop-opacity="1" stop-color="rgb(24.563599%, 33.13446%, 74.711609%)" offset="0.308594"/><stop stop-opacity="1" stop-color="rgb(24.874878%, 33.18634%, 74.798584%)" offset="0.3125"/><stop stop-opacity="1" stop-color="rgb(25.184631%, 33.23822%, 74.885559%)" offset="0.316406"/><stop stop-opacity="1" stop-color="rgb(25.495911%, 33.291626%, 74.97406%)" offset="0.320312"/><stop stop-opacity="1" stop-color="rgb(25.80719%, 33.343506%, 75.061035%)" offset="0.324219"/><stop stop-opacity="1" stop-color="rgb(26.118469%, 33.395386%, 75.149536%)" offset="0.328125"/><stop stop-opacity="1" stop-color="rgb(26.428223%, 33.447266%, 75.236511%)" offset="0.332031"/><stop stop-opacity="1" stop-color="rgb(26.739502%, 33.500671%, 75.323486%)" offset="0.335938"/><stop stop-opacity="1" stop-color="rgb(27.050781%, 33.552551%, 75.410461%)" offset="0.339844"/><stop stop-opacity="1" stop-color="rgb(27.362061%, 33.605957%, 75.498962%)" offset="0.34375"/><stop stop-opacity="1" stop-color="rgb(27.671814%, 33.657837%, 75.585938%)" offset="0.347656"/><stop stop-opacity="1" stop-color="rgb(27.983093%, 33.709717%, 75.674438%)" offset="0.351562"/><stop stop-opacity="1" stop-color="rgb(28.294373%, 33.761597%, 75.761414%)" offset="0.355469"/><stop stop-opacity="1" stop-color="rgb(28.605652%, 33.815002%, 75.849915%)" offset="0.359375"/><stop stop-opacity="1" stop-color="rgb(28.915405%, 33.866882%, 75.93689%)" offset="0.363281"/><stop stop-opacity="1" stop-color="rgb(29.226685%, 33.920288%, 76.023865%)" offset="0.367188"/><stop stop-opacity="1" stop-color="rgb(29.537964%, 33.972168%, 76.11084%)" offset="0.371094"/><stop stop-opacity="1" stop-color="rgb(29.849243%, 34.024048%, 76.199341%)" offset="0.375"/><stop stop-opacity="1" stop-color="rgb(30.160522%, 34.075928%, 76.286316%)" offset="0.378906"/><stop stop-opacity="1" stop-color="rgb(30.471802%, 34.129333%, 76.374817%)" offset="0.382812"/><stop stop-opacity="1" stop-color="rgb(30.781555%, 34.181213%, 76.461792%)" offset="0.386719"/><stop stop-opacity="1" stop-color="rgb(31.092834%, 34.233093%, 76.548767%)" offset="0.390625"/><stop stop-opacity="1" stop-color="rgb(31.404114%, 34.284973%, 76.635742%)" offset="0.394531"/><stop stop-opacity="1" stop-color="rgb(31.715393%, 34.338379%, 76.724243%)" offset="0.398438"/><stop stop-opacity="1" stop-color="rgb(32.025146%, 34.390259%, 76.811218%)" offset="0.402344"/><stop stop-opacity="1" stop-color="rgb(32.336426%, 34.443665%, 76.899719%)" offset="0.40625"/><stop stop-opacity="1" stop-color="rgb(32.647705%, 34.495544%, 76.986694%)" offset="0.410156"/><stop stop-opacity="1" stop-color="rgb(32.958984%, 34.547424%, 77.073669%)" offset="0.414062"/><stop stop-opacity="1" stop-color="rgb(33.268738%, 34.599304%, 77.160645%)" offset="0.417969"/><stop stop-opacity="1" stop-color="rgb(33.580017%, 34.65271%, 77.249146%)" offset="0.421875"/><stop stop-opacity="1" stop-color="rgb(33.891296%, 34.70459%, 77.336121%)" offset="0.425781"/><stop stop-opacity="1" stop-color="rgb(34.202576%, 34.75647%, 77.424622%)" offset="0.429688"/><stop stop-opacity="1" stop-color="rgb(34.512329%, 34.80835%, 77.511597%)" offset="0.433594"/><stop stop-opacity="1" stop-color="rgb(34.823608%, 34.861755%, 77.598572%)" offset="0.4375"/><stop stop-opacity="1" stop-color="rgb(35.134888%, 34.913635%, 77.685547%)" offset="0.441406"/><stop stop-opacity="1" stop-color="rgb(35.446167%, 34.967041%, 77.774048%)" offset="0.445312"/><stop stop-opacity="1" stop-color="rgb(35.757446%, 35.018921%, 77.861023%)" offset="0.449219"/><stop stop-opacity="1" stop-color="rgb(36.068726%, 35.070801%, 77.949524%)" offset="0.453125"/><stop stop-opacity="1" stop-color="rgb(36.378479%, 35.122681%, 78.036499%)" offset="0.457031"/><stop stop-opacity="1" stop-color="rgb(36.689758%, 35.176086%, 78.123474%)" offset="0.460938"/><stop stop-opacity="1" stop-color="rgb(37.001038%, 35.227966%, 78.210449%)" offset="0.464844"/><stop stop-opacity="1" stop-color="rgb(37.312317%, 35.279846%, 78.29895%)" offset="0.46875"/><stop stop-opacity="1" stop-color="rgb(37.62207%, 35.331726%, 78.385925%)" offset="0.472656"/><stop stop-opacity="1" stop-color="rgb(37.93335%, 35.385132%, 78.474426%)" offset="0.476562"/><stop stop-opacity="1" stop-color="rgb(38.244629%, 35.437012%, 78.561401%)" offset="0.480469"/><stop stop-opacity="1" stop-color="rgb(38.555908%, 35.490417%, 78.649902%)" offset="0.484375"/><stop stop-opacity="1" stop-color="rgb(38.865662%, 35.542297%, 78.736877%)" offset="0.488281"/><stop stop-opacity="1" stop-color="rgb(39.176941%, 35.594177%, 78.823853%)" offset="0.492188"/><stop stop-opacity="1" stop-color="rgb(39.48822%, 35.646057%, 78.910828%)" offset="0.496094"/><stop stop-opacity="1" stop-color="rgb(39.7995%, 35.699463%, 78.999329%)" offset="0.5"/><stop stop-opacity="1" stop-color="rgb(40.109253%, 35.751343%, 79.086304%)" offset="0.503906"/><stop stop-opacity="1" stop-color="rgb(40.420532%, 35.803223%, 79.174805%)" offset="0.507812"/><stop stop-opacity="1" stop-color="rgb(40.731812%, 35.855103%, 79.26178%)" offset="0.511719"/><stop stop-opacity="1" stop-color="rgb(41.043091%, 35.908508%, 79.348755%)" offset="0.515625"/><stop stop-opacity="1" stop-color="rgb(41.352844%, 35.960388%, 79.43573%)" offset="0.519531"/><stop stop-opacity="1" stop-color="rgb(41.664124%, 36.013794%, 79.524231%)" offset="0.523438"/><stop stop-opacity="1" stop-color="rgb(41.975403%, 36.065674%, 79.611206%)" offset="0.527344"/><stop stop-opacity="1" stop-color="rgb(42.286682%, 36.117554%, 79.699707%)" offset="0.53125"/><stop stop-opacity="1" stop-color="rgb(42.597961%, 36.169434%, 79.786682%)" offset="0.535156"/><stop stop-opacity="1" stop-color="rgb(42.909241%, 36.222839%, 79.873657%)" offset="0.539062"/><stop stop-opacity="1" stop-color="rgb(43.218994%, 36.274719%, 79.960632%)" offset="0.542969"/><stop stop-opacity="1" stop-color="rgb(43.530273%, 36.326599%, 80.049133%)" offset="0.546875"/><stop stop-opacity="1" stop-color="rgb(43.841553%, 36.378479%, 80.136108%)" offset="0.550781"/><stop stop-opacity="1" stop-color="rgb(44.152832%, 36.431885%, 80.224609%)" offset="0.554688"/><stop stop-opacity="1" stop-color="rgb(44.462585%, 36.483765%, 80.311584%)" offset="0.558594"/><stop stop-opacity="1" stop-color="rgb(44.773865%, 36.53717%, 80.39856%)" offset="0.5625"/><stop stop-opacity="1" stop-color="rgb(45.085144%, 36.58905%, 80.485535%)" offset="0.566406"/><stop stop-opacity="1" stop-color="rgb(45.396423%, 36.64093%, 80.574036%)" offset="0.570312"/><stop stop-opacity="1" stop-color="rgb(45.706177%, 36.69281%, 80.661011%)" offset="0.574219"/><stop stop-opacity="1" stop-color="rgb(46.017456%, 36.746216%, 80.749512%)" offset="0.578125"/><stop stop-opacity="1" stop-color="rgb(46.328735%, 36.798096%, 80.836487%)" offset="0.582031"/><stop stop-opacity="1" stop-color="rgb(46.640015%, 36.851501%, 80.924988%)" offset="0.585938"/><stop stop-opacity="1" stop-color="rgb(46.949768%, 36.903381%, 81.011963%)" offset="0.589844"/><stop stop-opacity="1" stop-color="rgb(47.261047%, 36.955261%, 81.098938%)" offset="0.59375"/><stop stop-opacity="1" stop-color="rgb(47.572327%, 37.007141%, 81.185913%)" offset="0.597656"/><stop stop-opacity="1" stop-color="rgb(47.883606%, 37.060547%, 81.274414%)" offset="0.601562"/><stop stop-opacity="1" stop-color="rgb(48.194885%, 37.112427%, 81.361389%)" offset="0.605469"/><stop stop-opacity="1" stop-color="rgb(48.506165%, 37.164307%, 81.44989%)" offset="0.609375"/><stop stop-opacity="1" stop-color="rgb(48.815918%, 37.216187%, 81.536865%)" offset="0.613281"/><stop stop-opacity="1" stop-color="rgb(49.127197%, 37.269592%, 81.62384%)" offset="0.617188"/><stop stop-opacity="1" stop-color="rgb(49.438477%, 37.321472%, 81.710815%)" offset="0.621094"/><stop stop-opacity="1" stop-color="rgb(49.749756%, 37.374878%, 81.799316%)" offset="0.625"/><stop stop-opacity="1" stop-color="rgb(50.059509%, 37.426758%, 81.886292%)" offset="0.628906"/><stop stop-opacity="1" stop-color="rgb(50.370789%, 37.478638%, 81.974792%)" offset="0.632812"/><stop stop-opacity="1" stop-color="rgb(50.682068%, 37.530518%, 82.061768%)" offset="0.636719"/><stop stop-opacity="1" stop-color="rgb(50.993347%, 37.583923%, 82.148743%)" offset="0.640625"/><stop stop-opacity="1" stop-color="rgb(51.303101%, 37.635803%, 82.235718%)" offset="0.644531"/><stop stop-opacity="1" stop-color="rgb(51.61438%, 37.687683%, 82.324219%)" offset="0.648438"/><stop stop-opacity="1" stop-color="rgb(51.925659%, 37.739563%, 82.411194%)" offset="0.652344"/><stop stop-opacity="1" stop-color="rgb(52.236938%, 37.792969%, 82.499695%)" offset="0.65625"/><stop stop-opacity="1" stop-color="rgb(52.546692%, 37.844849%, 82.58667%)" offset="0.660156"/><stop stop-opacity="1" stop-color="rgb(52.857971%, 37.898254%, 82.673645%)" offset="0.664062"/><stop stop-opacity="1" stop-color="rgb(53.16925%, 37.950134%, 82.76062%)" offset="0.667969"/><stop stop-opacity="1" stop-color="rgb(53.48053%, 38.002014%, 82.849121%)" offset="0.671875"/><stop stop-opacity="1" stop-color="rgb(53.791809%, 38.053894%, 82.936096%)" offset="0.675781"/><stop stop-opacity="1" stop-color="rgb(54.103088%, 38.1073%, 83.024597%)" offset="0.679688"/><stop stop-opacity="1" stop-color="rgb(54.412842%, 38.15918%, 83.111572%)" offset="0.683594"/><stop stop-opacity="1" stop-color="rgb(54.724121%, 38.21106%, 83.198547%)" offset="0.6875"/><stop stop-opacity="1" stop-color="rgb(55.0354%, 38.262939%, 83.285522%)" offset="0.691406"/><stop stop-opacity="1" stop-color="rgb(55.34668%, 38.316345%, 83.374023%)" offset="0.695312"/><stop stop-opacity="1" stop-color="rgb(55.656433%, 38.368225%, 83.460999%)" offset="0.699219"/><stop stop-opacity="1" stop-color="rgb(55.967712%, 38.421631%, 83.5495%)" offset="0.703125"/><stop stop-opacity="1" stop-color="rgb(56.278992%, 38.473511%, 83.636475%)" offset="0.707031"/><stop stop-opacity="1" stop-color="rgb(56.590271%, 38.525391%, 83.724976%)" offset="0.710938"/><stop stop-opacity="1" stop-color="rgb(56.900024%, 38.577271%, 83.811951%)" offset="0.714844"/><stop stop-opacity="1" stop-color="rgb(57.211304%, 38.630676%, 83.898926%)" offset="0.71875"/><stop stop-opacity="1" stop-color="rgb(57.522583%, 38.682556%, 83.985901%)" offset="0.722656"/><stop stop-opacity="1" stop-color="rgb(57.833862%, 38.734436%, 84.074402%)" offset="0.726562"/><stop stop-opacity="1" stop-color="rgb(58.143616%, 38.786316%, 84.161377%)" offset="0.730469"/><stop stop-opacity="1" stop-color="rgb(58.454895%, 38.839722%, 84.249878%)" offset="0.734375"/><stop stop-opacity="1" stop-color="rgb(58.766174%, 38.891602%, 84.336853%)" offset="0.738281"/><stop stop-opacity="1" stop-color="rgb(59.077454%, 38.945007%, 84.423828%)" offset="0.742188"/><stop stop-opacity="1" stop-color="rgb(59.387207%, 38.996887%, 84.510803%)" offset="0.746094"/><stop stop-opacity="1" stop-color="rgb(59.698486%, 39.048767%, 84.599304%)" offset="0.75"/><stop stop-opacity="1" stop-color="rgb(60.009766%, 39.100647%, 84.686279%)" offset="0.753906"/><stop stop-opacity="1" stop-color="rgb(60.321045%, 39.154053%, 84.77478%)" offset="0.757812"/><stop stop-opacity="1" stop-color="rgb(60.632324%, 39.205933%, 84.861755%)" offset="0.761719"/><stop stop-opacity="1" stop-color="rgb(60.943604%, 39.259338%, 84.94873%)" offset="0.765625"/><stop stop-opacity="1" stop-color="rgb(61.253357%, 39.311218%, 85.035706%)" offset="0.769531"/><stop stop-opacity="1" stop-color="rgb(61.564636%, 39.363098%, 85.124207%)" offset="0.773438"/><stop stop-opacity="1" stop-color="rgb(61.875916%, 39.414978%, 85.211182%)" offset="0.777344"/><stop stop-opacity="1" stop-color="rgb(62.187195%, 39.468384%, 85.299683%)" offset="0.78125"/><stop stop-opacity="1" stop-color="rgb(62.496948%, 39.520264%, 85.386658%)" offset="0.785156"/><stop stop-opacity="1" stop-color="rgb(62.808228%, 39.572144%, 85.473633%)" offset="0.789062"/><stop stop-opacity="1" stop-color="rgb(63.119507%, 39.624023%, 85.560608%)" offset="0.792969"/><stop stop-opacity="1" stop-color="rgb(63.430786%, 39.677429%, 85.649109%)" offset="0.796875"/><stop stop-opacity="1" stop-color="rgb(63.74054%, 39.729309%, 85.736084%)" offset="0.800781"/><stop stop-opacity="1" stop-color="rgb(64.051819%, 39.782715%, 85.824585%)" offset="0.804688"/><stop stop-opacity="1" stop-color="rgb(64.363098%, 39.834595%, 85.91156%)" offset="0.808594"/><stop stop-opacity="1" stop-color="rgb(64.674377%, 39.886475%, 85.998535%)" offset="0.8125"/><stop stop-opacity="1" stop-color="rgb(64.984131%, 39.938354%, 86.08551%)" offset="0.816406"/><stop stop-opacity="1" stop-color="rgb(65.29541%, 39.99176%, 86.174011%)" offset="0.820312"/><stop stop-opacity="1" stop-color="rgb(65.606689%, 40.04364%, 86.260986%)" offset="0.824219"/><stop stop-opacity="1" stop-color="rgb(65.917969%, 40.09552%, 86.349487%)" offset="0.828125"/><stop stop-opacity="1" stop-color="rgb(66.229248%, 40.1474%, 86.436462%)" offset="0.832031"/><stop stop-opacity="1" stop-color="rgb(66.540527%, 40.200806%, 86.524963%)" offset="0.835938"/><stop stop-opacity="1" stop-color="rgb(66.850281%, 40.252686%, 86.611938%)" offset="0.839844"/><stop stop-opacity="1" stop-color="rgb(67.16156%, 40.306091%, 86.698914%)" offset="0.84375"/><stop stop-opacity="1" stop-color="rgb(67.472839%, 40.357971%, 86.785889%)" offset="0.847656"/><stop stop-opacity="1" stop-color="rgb(67.784119%, 40.409851%, 86.87439%)" offset="0.851562"/><stop stop-opacity="1" stop-color="rgb(68.093872%, 40.461731%, 86.961365%)" offset="0.855469"/><stop stop-opacity="1" stop-color="rgb(68.405151%, 40.515137%, 87.049866%)" offset="0.859375"/><stop stop-opacity="1" stop-color="rgb(68.716431%, 40.567017%, 87.136841%)" offset="0.863281"/><stop stop-opacity="1" stop-color="rgb(69.02771%, 40.618896%, 87.223816%)" offset="0.867188"/><stop stop-opacity="1" stop-color="rgb(69.337463%, 40.670776%, 87.310791%)" offset="0.871094"/><stop stop-opacity="1" stop-color="rgb(69.648743%, 40.724182%, 87.399292%)" offset="0.875"/><stop stop-opacity="1" stop-color="rgb(69.960022%, 40.776062%, 87.486267%)" offset="0.878906"/><stop stop-opacity="1" stop-color="rgb(70.271301%, 40.829468%, 87.574768%)" offset="0.882812"/><stop stop-opacity="1" stop-color="rgb(70.581055%, 40.881348%, 87.661743%)" offset="0.886719"/><stop stop-opacity="1" stop-color="rgb(70.892334%, 40.933228%, 87.748718%)" offset="0.890625"/><stop stop-opacity="1" stop-color="rgb(71.203613%, 40.985107%, 87.835693%)" offset="0.894531"/><stop stop-opacity="1" stop-color="rgb(71.514893%, 41.038513%, 87.924194%)" offset="0.898438"/><stop stop-opacity="1" stop-color="rgb(71.826172%, 41.090393%, 88.011169%)" offset="0.902344"/><stop stop-opacity="1" stop-color="rgb(72.137451%, 41.142273%, 88.09967%)" offset="0.90625"/><stop stop-opacity="1" stop-color="rgb(72.447205%, 41.194153%, 88.186646%)" offset="0.910156"/><stop stop-opacity="1" stop-color="rgb(72.758484%, 41.247559%, 88.273621%)" offset="0.914062"/><stop stop-opacity="1" stop-color="rgb(73.069763%, 41.299438%, 88.360596%)" offset="0.917969"/><stop stop-opacity="1" stop-color="rgb(73.381042%, 41.352844%, 88.449097%)" offset="0.921875"/><stop stop-opacity="1" stop-color="rgb(73.690796%, 41.404724%, 88.536072%)" offset="0.925781"/><stop stop-opacity="1" stop-color="rgb(74.002075%, 41.456604%, 88.624573%)" offset="0.929688"/><stop stop-opacity="1" stop-color="rgb(74.313354%, 41.508484%, 88.711548%)" offset="0.933594"/><stop stop-opacity="1" stop-color="rgb(74.624634%, 41.56189%, 88.798523%)" offset="0.9375"/><stop stop-opacity="1" stop-color="rgb(74.934387%, 41.61377%, 88.885498%)" offset="0.941406"/><stop stop-opacity="1" stop-color="rgb(75.245667%, 41.667175%, 88.973999%)" offset="0.945312"/><stop stop-opacity="1" stop-color="rgb(75.556946%, 41.719055%, 89.060974%)" offset="0.949219"/><stop stop-opacity="1" stop-color="rgb(75.868225%, 41.770935%, 89.149475%)" offset="0.953125"/><stop stop-opacity="1" stop-color="rgb(76.177979%, 41.822815%, 89.23645%)" offset="0.957031"/><stop stop-opacity="1" stop-color="rgb(76.489258%, 41.876221%, 89.324951%)" offset="0.960938"/><stop stop-opacity="1" stop-color="rgb(76.800537%, 41.928101%, 89.411926%)" offset="0.964844"/><stop stop-opacity="1" stop-color="rgb(77.111816%, 41.97998%, 89.498901%)" offset="0.96875"/><stop stop-opacity="1" stop-color="rgb(77.42157%, 42.03186%, 89.585876%)" offset="0.972656"/><stop stop-opacity="1" stop-color="rgb(77.732849%, 42.085266%, 89.674377%)" offset="0.976562"/><stop stop-opacity="1" stop-color="rgb(78.044128%, 42.137146%, 89.761353%)" offset="0.980469"/><stop stop-opacity="1" stop-color="rgb(78.355408%, 42.190552%, 89.849854%)" offset="0.984375"/><stop stop-opacity="1" stop-color="rgb(78.666687%, 42.242432%, 89.936829%)" offset="0.988281"/><stop stop-opacity="1" stop-color="rgb(78.977966%, 42.294312%, 90.023804%)" offset="0.992188"/><stop stop-opacity="1" stop-color="rgb(79.28772%, 42.346191%, 90.110779%)" offset="0.996094"/><stop stop-opacity="1" stop-color="rgb(79.598999%, 42.399597%, 90.19928%)" offset="1"/></linearGradient></defs><rect x="-38.4" width="460.8" fill="#ffffff" y="-38.399999" height="460.799983" fill-opacity="1"/><rect x="-38.4" fill="url(#7ca08d5ad2)" width="460.8" y="-38.399999" height="460.799983"/><path fill="#655f68" d="M 382.710938 270.820312 C 383.554688 272.851562 384 275.042969 384 277.285156 C 384 281.945312 382.109375 286.175781 379.050781 289.226562 C 376 292.289062 371.777344 294.175781 367.117188 294.175781 C 362.636719 294.175781 358.34375 292.398438 355.175781 289.226562 L 298.472656 232.519531 C 300.3125 220.136719 309.578125 207.179688 321.21875 207.511719 L 379.050781 265.351562 C 380.636719 266.925781 381.878906 268.792969 382.710938 270.820312 Z M 382.710938 270.820312 " fill-opacity="1" fill-rule="nonzero"/><path fill="#ffc05a" d="M 311.109375 197.402344 L 321.21875 207.511719 C 321.171875 207.980469 319.382812 226.265625 298.472656 232.519531 L 288.367188 222.410156 C 287.085938 204.121094 297.410156 192.929688 311.109375 197.402344 Z M 311.109375 197.402344 " fill-opacity="1" fill-rule="nonzero"/><path fill="#655f68" d="M 298.746094 185.039062 L 311.109375 197.402344 C 311.0625 197.871094 309.277344 216.160156 288.367188 222.410156 L 274.871094 208.914062 C 273.890625 188.507812 282.265625 181.125 298.746094 185.039062 Z M 298.746094 185.039062 " fill-opacity="1" fill-rule="nonzero"/><path fill="#604533" d="M 323.347656 57.402344 C 290.769531 24.820312 245.394531 17.382812 221.984375 40.78125 C 214.484375 48.285156 210.152344 58.046875 208.804688 68.921875 L 311.828125 171.957031 C 322.699219 170.605469 332.464844 166.273438 339.964844 158.773438 C 363.363281 135.363281 355.925781 89.980469 323.347656 57.402344 Z M 323.347656 57.402344 " fill-opacity="1" fill-rule="nonzero"/><path fill="#ffc05a" d="M 297.585938 83.167969 C 280.34375 65.925781 256.53125 55.261719 230.21875 55.261719 C 227.738281 55.261719 225.304688 55.753906 223.054688 56.691406 C 220.800781 57.621094 218.730469 58.992188 216.976562 60.75 L 199 78.726562 L 302.023438 181.761719 L 320 163.785156 C 323.511719 160.269531 325.488281 155.5 325.488281 150.539062 C 325.488281 124.226562 314.824219 100.410156 297.585938 83.167969 Z M 297.585938 83.167969 " fill-opacity="1" fill-rule="nonzero"/><path fill="#604533" d="M 279.609375 101.144531 C 262.367188 83.902344 238.546875 73.238281 212.246094 73.238281 C 209.765625 73.238281 207.328125 73.730469 205.082031 74.667969 C 202.824219 75.59375 200.757812 76.96875 199 78.726562 L 159.976562 117.753906 L 263 220.789062 L 274.871094 208.914062 L 302.023438 181.761719 C 305.539062 178.246094 307.511719 173.476562 307.511719 168.515625 C 307.511719 142.207031 296.851562 118.386719 279.609375 101.144531 Z M 279.609375 101.144531 " fill-opacity="1" fill-rule="nonzero"/><path fill="#a35757" d="M 240.585938 140.171875 C 223.34375 122.929688 199.523438 112.265625 173.222656 112.265625 C 170.738281 112.265625 168.304688 112.757812 166.054688 113.695312 C 163.800781 114.625 161.734375 115.996094 159.976562 117.753906 L 145.929688 131.804688 L 249.015625 234.777344 L 263 220.789062 C 266.511719 217.277344 268.488281 212.507812 268.488281 207.542969 C 268.488281 181.238281 257.828125 157.414062 240.585938 140.171875 Z M 240.585938 140.171875 " fill-opacity="1" fill-rule="nonzero"/><path fill="#ffc05a" d="M 226.535156 154.222656 C 209.296875 136.980469 185.476562 126.316406 159.171875 126.316406 C 156.691406 126.316406 154.253906 126.808594 152.007812 127.746094 C 149.753906 128.675781 147.683594 130.046875 145.929688 131.804688 L 142.40625 135.324219 L 142.40625 135.332031 L 245.246094 234.777344 L 249.015625 234.777344 C 252.488281 231.269531 254.4375 226.523438 254.4375 221.59375 C 254.4375 195.285156 243.777344 171.464844 226.535156 154.222656 Z M 226.535156 154.222656 " fill-opacity="1" fill-rule="nonzero"/><path fill="#a35757" d="M 212.292969 168.46875 C 191.265625 147.4375 165.378906 135.972656 142.40625 135.332031 C 126.367188 134.878906 111.742188 139.710938 101.199219 150.257812 C 91.535156 159.925781 86.953125 173.019531 86.265625 187.472656 C 85.628906 200.953125 87.679688 212.710938 89.921875 221.125 L 220.402344 234.777344 L 245.246094 234.777344 C 243.574219 212.71875 232.226562 188.402344 212.292969 168.46875 Z M 212.292969 168.46875 " fill-opacity="1" fill-rule="nonzero"/><path fill="#604533" d="M 220.402344 234.777344 C 178.253906 249.578125 136.308594 251.183594 94.632812 234.777344 C 94.632812 234.777344 92.183594 229.664062 89.921875 221.125 C 85.167969 202.046875 88.351562 183.710938 100.386719 171.675781 C 121.953125 150.109375 163.761719 156.960938 193.78125 186.980469 C 208.171875 201.375 217.242188 218.484375 220.402344 234.777344 Z M 220.402344 234.777344 " fill-opacity="1" fill-rule="nonzero"/><path fill="#a35757" d="M 274.730469 268.035156 C 203.566406 263.441406 130.664062 263.589844 56.195312 268.035156 C 39.773438 271.6875 25.726562 280.789062 15.78125 293.183594 C 5.839844 305.582031 0 321.269531 0 338.089844 L 0 372.21875 C 0 378.671875 5.230469 383.902344 11.683594 383.902344 L 319.242188 383.902344 C 325.699219 383.902344 330.925781 378.671875 330.925781 372.21875 L 330.925781 338.089844 C 330.925781 304.457031 307.566406 275.332031 274.730469 268.035156 Z M 274.730469 268.035156 " fill-opacity="1" fill-rule="nonzero"/><path fill="#e0ac69" d="M 249.015625 234.777344 L 259.910156 234.777344 C 265.335938 234.777344 269.953125 238.703125 270.828125 244.0625 L 274.730469 268.035156 L 56.195312 268.035156 L 60.097656 244.0625 C 60.972656 238.703125 65.59375 234.777344 71.015625 234.777344 Z M 249.015625 234.777344 " fill-opacity="1" fill-rule="nonzero"/><path fill="#f9b132" d="M 325.488281 150.539062 C 325.488281 155.5 323.511719 160.269531 320 163.785156 L 302.023438 181.761719 C 305.539062 178.246094 307.511719 173.476562 307.511719 168.515625 C 307.511719 159.039062 306.128906 149.890625 303.554688 141.25 C 303.976562 141.195312 319.226562 139.25 323.667969 131.929688 C 324.863281 137.945312 325.488281 144.167969 325.488281 150.539062 Z M 325.488281 150.539062 " fill-opacity="1" fill-rule="nonzero"/><path fill="#543927" d="M 307.511719 168.515625 C 307.511719 173.476562 305.539062 178.246094 302.023438 181.761719 L 274.871094 208.914062 L 263 220.789062 C 266.511719 217.277344 268.488281 212.507812 268.488281 207.542969 C 268.488281 197.769531 267.011719 188.339844 264.28125 179.457031 L 303.546875 141.25 C 303.546875 141.25 303.546875 141.25 303.554688 141.25 C 306.128906 149.890625 307.511719 159.039062 307.511719 168.515625 Z M 307.511719 168.515625 " fill-opacity="1" fill-rule="nonzero"/><path fill="#543927" d="M 351.117188 104.328125 C 356.558594 125.308594 353.1875 145.550781 339.964844 158.773438 C 332.464844 166.273438 322.699219 170.605469 311.828125 171.957031 L 320 163.785156 C 323.511719 160.269531 325.488281 155.5 325.488281 150.539062 C 325.488281 144.167969 324.863281 137.945312 323.667969 131.929688 C 323.667969 131.929688 352.21875 127.917969 351.117188 104.328125 Z M 351.117188 104.328125 " fill-opacity="1" fill-rule="nonzero"/><path fill="#9e4949" d="M 268.488281 207.542969 C 268.488281 212.507812 266.511719 217.277344 263 220.789062 L 249.015625 234.777344 C 252.488281 231.269531 254.4375 226.523438 254.4375 221.59375 C 254.4375 211.710938 252.933594 202.179688 250.136719 193.21875 L 264.28125 179.457031 C 267.011719 188.339844 268.488281 197.769531 268.488281 207.542969 Z M 268.488281 207.542969 " fill-opacity="1" fill-rule="nonzero"/><path fill="#f9b132" d="M 254.4375 221.59375 C 254.4375 226.523438 252.488281 231.269531 249.015625 234.777344 L 245.246094 234.777344 C 244.519531 225.207031 241.972656 215.214844 237.691406 205.347656 C 237.691406 205.339844 237.691406 205.339844 237.691406 205.332031 L 250.136719 193.21875 C 252.933594 202.179688 254.4375 211.710938 254.4375 221.59375 Z M 254.4375 221.59375 " fill-opacity="1" fill-rule="nonzero"/><path fill="#9e4949" d="M 245.246094 234.777344 L 220.402344 234.777344 C 219.605469 230.691406 218.441406 226.546875 216.914062 222.410156 C 216.914062 222.410156 236.355469 222.136719 237.691406 205.347656 C 241.972656 215.214844 244.519531 225.207031 245.246094 234.777344 Z M 245.246094 234.777344 " fill-opacity="1" fill-rule="nonzero"/><path fill="#543927" d="M 220.402344 234.777344 L 94.632812 234.777344 C 94.632812 234.777344 92.183594 229.664062 89.921875 221.125 L 216.914062 222.410156 C 218.441406 226.546875 219.605469 230.691406 220.402344 234.777344 Z M 220.402344 234.777344 " fill-opacity="1" fill-rule="nonzero"/><path fill="#e7f2f1" d="M 209.375 296.503906 C 207.648438 296.503906 206.25 297.902344 206.25 299.625 L 206.25 352.3125 C 206.25 354.035156 207.648438 355.433594 209.375 355.433594 C 211.097656 355.433594 212.496094 354.035156 212.496094 352.3125 L 212.496094 299.625 C 212.496094 297.902344 211.097656 296.503906 209.375 296.503906 Z M 209.375 296.503906 " fill-opacity="1" fill-rule="nonzero"/><path fill="#e7f2f1" d="M 194.300781 296.503906 L 169.515625 296.503906 C 167.789062 296.503906 166.390625 297.902344 166.390625 299.625 C 166.390625 301.347656 167.789062 302.746094 169.515625 302.746094 L 178.785156 302.746094 L 178.785156 352.3125 C 178.785156 354.035156 180.183594 355.433594 181.910156 355.433594 C 183.632812 355.433594 185.03125 354.035156 185.03125 352.3125 L 185.03125 302.746094 L 194.300781 302.746094 C 196.027344 302.746094 197.425781 301.347656 197.425781 299.625 C 197.425781 297.902344 196.027344 296.503906 194.300781 296.503906 Z M 194.300781 296.503906 " fill-opacity="1" fill-rule="nonzero"/><path fill="#e7f2f1" d="M 112.875 296.503906 C 111.148438 296.503906 109.753906 297.902344 109.753906 299.625 L 109.753906 339.917969 C 109.753906 342.390625 108.785156 344.71875 107.035156 346.476562 C 105.285156 348.226562 102.957031 349.191406 100.480469 349.191406 C 95.363281 349.191406 91.199219 345.03125 91.199219 339.917969 L 91.199219 299.625 C 91.199219 297.902344 89.800781 296.503906 88.078125 296.503906 C 86.355469 296.503906 84.957031 297.902344 84.957031 299.625 L 84.957031 339.917969 C 84.957031 348.472656 91.921875 355.433594 100.480469 355.433594 C 104.625 355.433594 108.523438 353.820312 111.457031 350.886719 C 114.382812 347.949219 115.996094 344.054688 115.996094 339.917969 L 115.996094 299.625 C 115.996094 297.902344 114.597656 296.503906 112.875 296.503906 Z M 112.875 296.503906 " fill-opacity="1" fill-rule="nonzero"/><path fill="#e7f2f1" d="M 141.191406 302.746094 C 143.898438 302.746094 146.445312 303.800781 148.351562 305.707031 C 150.265625 307.628906 151.320312 310.175781 151.320312 312.878906 C 151.320312 314.601562 152.71875 316 154.441406 316 C 156.167969 316 157.566406 314.601562 157.566406 312.878906 C 157.566406 308.511719 155.863281 304.398438 152.769531 301.296875 C 149.679688 298.207031 145.566406 296.503906 141.191406 296.503906 C 132.164062 296.503906 124.824219 303.847656 124.824219 312.878906 L 124.824219 339.058594 C 124.824219 343.425781 126.523438 347.539062 129.617188 350.640625 C 132.707031 353.734375 136.820312 355.433594 141.191406 355.433594 C 150.21875 355.433594 157.566406 348.089844 157.566406 339.058594 C 157.566406 337.335938 156.167969 335.9375 154.441406 335.9375 C 152.71875 335.9375 151.320312 337.335938 151.320312 339.058594 C 151.320312 344.644531 146.777344 349.191406 141.191406 349.191406 C 138.484375 349.191406 135.945312 348.136719 134.035156 346.230469 C 132.121094 344.308594 131.066406 341.761719 131.066406 339.058594 L 131.066406 312.878906 C 131.066406 307.292969 135.609375 302.746094 141.191406 302.746094 Z M 141.191406 302.746094 " fill-opacity="1" fill-rule="nonzero"/><path fill="#e7f2f1" d="M 237.691406 296.503906 C 233.316406 296.503906 229.207031 298.203125 226.113281 301.300781 C 223.023438 304.398438 221.324219 308.511719 221.324219 312.878906 L 221.324219 339.058594 C 221.324219 348.085938 228.664062 355.433594 237.691406 355.433594 C 246.71875 355.433594 254.0625 348.085938 254.0625 339.058594 L 254.0625 312.878906 C 254.0625 303.847656 246.71875 296.503906 237.691406 296.503906 Z M 247.820312 339.058594 C 247.820312 344.644531 243.277344 349.191406 237.691406 349.191406 C 232.109375 349.191406 227.566406 344.644531 227.566406 339.058594 L 227.566406 312.878906 C 227.566406 310.175781 228.621094 307.628906 230.53125 305.710938 C 232.441406 303.800781 234.984375 302.746094 237.691406 302.746094 C 243.277344 302.746094 247.820312 307.292969 247.820312 312.878906 Z M 247.820312 339.058594 " fill-opacity="1" fill-rule="nonzero"/><path fill="#e7f2f1" d="M 59.550781 298.695312 C 59.144531 297.390625 57.9375 296.5 56.570312 296.5 C 55.203125 296.5 53.996094 297.390625 53.589844 298.695312 L 42.324219 334.796875 C 42.316406 334.820312 42.304688 334.839844 42.296875 334.867188 L 37.144531 351.382812 C 36.632812 353.03125 37.550781 354.78125 39.195312 355.292969 C 39.503906 355.390625 39.816406 355.4375 40.125 355.4375 C 41.457031 355.4375 42.6875 354.578125 43.105469 353.242188 L 47.570312 338.917969 L 65.5625 338.917969 L 70.035156 353.242188 C 70.453125 354.578125 71.683594 355.4375 73.011719 355.4375 C 73.320312 355.4375 73.636719 355.390625 73.945312 355.292969 C 75.589844 354.777344 76.507812 353.027344 75.992188 351.382812 Z M 49.527344 332.675781 L 56.570312 310.105469 L 63.613281 332.675781 Z M 49.527344 332.675781 " fill-opacity="1" fill-rule="nonzero"/><path fill="#e7f2f1" d="M 290.800781 296.503906 C 289.078125 296.503906 287.679688 297.902344 287.679688 299.625 L 287.679688 338.34375 L 268.839844 298.296875 C 268.214844 296.972656 266.757812 296.261719 265.332031 296.578125 C 263.90625 296.898438 262.890625 298.164062 262.890625 299.625 L 262.890625 352.3125 C 262.890625 354.035156 264.289062 355.433594 266.011719 355.433594 C 267.738281 355.433594 269.136719 354.035156 269.136719 352.3125 L 269.136719 313.59375 L 287.976562 353.640625 C 288.5 354.753906 289.613281 355.433594 290.800781 355.433594 C 291.027344 355.433594 291.253906 355.410156 291.484375 355.359375 C 292.910156 355.039062 293.925781 353.773438 293.925781 352.3125 L 293.925781 299.625 C 293.925781 297.902344 292.527344 296.503906 290.800781 296.503906 Z M 290.800781 296.503906 " fill-opacity="1" fill-rule="nonzero"/></svg>