<svg xmlns="http://www.w3.org/2000/svg" xmlns:xlink="http://www.w3.org/1999/xlink" width="512" zoomAndPan="magnify" viewBox="0 0 384 383.999986" height="512" preserveAspectRatio="xMidYMid meet" version="1.0"><defs><clipPath id="95dea64a83"><path d="M 26.25 0 L 357.75 0 C 364.710938 0 371.390625 2.765625 376.3125 7.6875 C 381.234375 12.609375 384 19.289062 384 26.25 L 384 357.75 C 384 364.710938 381.234375 371.390625 376.3125 376.3125 C 371.390625 381.234375 364.710938 384 357.75 384 L 26.25 384 C 19.289062 384 12.609375 381.234375 7.6875 376.3125 C 2.765625 371.390625 0 364.710938 0 357.75 L 0 26.25 C 0 19.289062 2.765625 12.609375 7.6875 7.6875 C 12.609375 2.765625 19.289062 0 26.25 0 Z M 26.25 0 " clip-rule="nonzero"/></clipPath></defs><rect x="-38.4" width="460.8" fill="#ffffff" y="-38.399999" height="460.799983" fill-opacity="1"/><rect x="-38.4" width="460.8" fill="#2a1816" y="-38.399999" height="460.799983" fill-opacity="1"/><g clip-path="url(#95dea64a83)"><rect x="-38.4" width="460.8" fill="#d9d9d9" y="-38.399999" height="460.799983" fill-opacity="1"/></g><path fill="#000000" d="M 239.027344 41.75 L 189.484375 129.800781 L 90.46875 129.800781 L 139.976562 41.75 L 239.027344 41.75 " fill-opacity="0.45" fill-rule="nonzero"/><path fill="#000000" d="M 189.484375 129.800781 L 288.535156 129.800781 L 239.027344 41.75 L 139.976562 41.75 Z M 189.484375 129.800781 " fill-opacity="0.6" fill-rule="nonzero"/><path fill="#000000" d="M 139.976562 217.820312 L 189.484375 129.800781 L 139.976562 41.75 L 90.46875 129.800781 Z M 139.976562 217.820312 " fill-opacity="0.8" fill-rule="nonzero"/><path fill="#000000" d="M 140.457031 349.898438 L 190 261.84375 L 289.050781 261.84375 L 239.507812 349.898438 L 140.457031 349.898438 " fill-opacity="0.45" fill-rule="nonzero"/><path fill="#000000" d="M 190 261.84375 L 90.949219 261.84375 L 140.457031 349.898438 L 239.507812 349.898438 Z M 190 261.84375 " fill-opacity="0.6" fill-rule="nonzero"/><path fill="#000000" d="M 239.507812 173.828125 L 190 261.84375 L 239.507812 349.898438 L 289.046875 261.84375 Z M 239.507812 173.828125 " fill-opacity="0.8" fill-rule="nonzero"/></svg>